<?xml version="1.0" standalone="no"?><!DOCTYPE svg PUBLIC "-//W3C//DTD SVG 1.1//EN" "http://www.w3.org/Graphics/SVG/1.1/DTD/svg11.dtd"><svg t="1554444996199" class="icon" style="" viewBox="0 0 1025 1024" version="1.1" xmlns="http://www.w3.org/2000/svg" p-id="1604" xmlns:xlink="http://www.w3.org/1999/xlink" width="200.1953125" height="200"><defs><style type="text/css"></style></defs><path d="M882.688 287.744q10.24-23.552 33.792-32.768t47.104-11.264q27.648-3.072 60.416 1.024-58.368 147.456-104.448 264.192-19.456 50.176-38.4 98.304t-34.304 86.528-25.088 62.464-10.752 26.112q-3.072 9.216-10.752 19.968t-19.456 19.968-27.648 15.872-36.352 6.656q-19.456 0-34.816-7.168t-26.112-17.408-17.408-20.992-8.704-17.92q-2.048-4.096-13.824-38.4t-28.16-80.384-33.28-95.744-29.184-85.504q-20.48 53.248-40.96 105.984t-37.376 95.232-27.648 69.632-11.776 30.208q-3.072 9.216-10.24 19.968t-17.92 19.968-25.6 15.872-35.328 6.656-35.84-7.168-26.112-17.408-16.896-20.992-9.216-17.92q-1.024-3.072-6.656-19.456t-14.336-41.984-19.456-56.32-22.016-63.488q-26.624-75.776-58.368-169.984-11.264-30.72-19.968-47.104t-18.944-22.528-23.552-4.096-33.792 8.192q-9.216-49.152 17.408-84.992t74.752-48.128q48.128-13.312 80.384 4.096t46.592 57.344q4.096 12.288 15.872 47.104t28.672 82.432 35.84 102.4 36.352 107.008l132.096-336.896q11.264-27.648 33.28-39.424t45.568-10.24 43.52 13.824 28.16 33.792q4.096 12.288 15.872 47.104t28.16 82.432 34.816 102.4 36.864 107.008z" p-id="1605" fill="#13227a"></path></svg>